<?xml version="1.0" standalone="no"?>
<!DOCTYPE svg PUBLIC "-//W3C//DTD SVG 20010904//EN"
 "http://www.w3.org/TR/2001/REC-SVG-20010904/DTD/svg10.dtd">
<svg version="1.0" xmlns="http://www.w3.org/2000/svg"
 width="1024.000000pt" height="1024.000000pt" viewBox="0 0 1024.000000 1024.000000"
 preserveAspectRatio="xMidYMid meet">
<metadata>
Created by potrace 1.11, written by Peter Selinger 2001-2013
</metadata>
<g transform="translate(0.000000,1024.000000) scale(0.100000,-0.100000)"
fill="#000000" stroke="none">
<path d="M1350 10234 c-132 -21 -228 -41 -302 -65 -96 -31 -244 -95 -269 -116
-8 -7 -19 -13 -23 -13 -14 0 -160 -102 -221 -153 -170 -145 -294 -308 -390
-510 -73 -154 -107 -270 -134 -458 -6 -39 -10 -1531 -9 -3819 l0 -3755 24
-119 c44 -217 112 -383 227 -556 229 -345 594 -580 1012 -651 66 -12 727 -14
3870 -14 l3790 0 104 23 c478 106 845 387 1056 811 41 82 97 234 110 297 3 16
14 65 23 109 16 74 17 343 17 3880 l0 3800 -23 102 c-79 359 -244 637 -514
866 -172 145 -440 274 -658 316 -30 6 -68 14 -85 18 -30 8 -7557 14 -7605 7z
m540 -2955 c0 -3 -60 -6 -134 -6 -139 0 -159 -4 -149 -28 3 -8 1 -15 -5 -15
-14 0 -9 44 5 50 17 7 283 6 283 -1z m120 0 c0 -4 -26 -7 -57 -7 -32 0 -50 3
-41 6 24 10 98 10 98 1z m30 1 c0 -5 -5 -10 -11 -10 -5 0 -7 5 -4 10 3 6 8 10
11 10 2 0 4 -4 4 -10z m30 0 c0 -5 -5 -10 -11 -10 -5 0 -7 5 -4 10 3 6 8 10
11 10 2 0 4 -4 4 -10z m30 0 c0 -5 -5 -10 -11 -10 -5 0 -7 5 -4 10 3 6 8 10
11 10 2 0 4 -4 4 -10z m30 0 c0 -5 -5 -10 -11 -10 -5 0 -7 5 -4 10 3 6 8 10
11 10 2 0 4 -4 4 -10z m200 -1 c0 -4 -44 -7 -97 -7 -54 0 -90 3 -81 7 23 8
178 8 178 0z m30 1 c0 -5 -5 -10 -11 -10 -5 0 -7 5 -4 10 3 6 8 10 11 10 2 0
4 -4 4 -10z m30 0 c0 -5 -5 -10 -11 -10 -5 0 -7 5 -4 10 3 6 8 10 11 10 2 0 4
-4 4 -10z m30 0 c0 -5 -5 -10 -11 -10 -5 0 -7 5 -4 10 3 6 8 10 11 10 2 0 4
-4 4 -10z m30 0 c0 -5 -5 -10 -11 -10 -5 0 -7 5 -4 10 3 6 8 10 11 10 2 0 4
-4 4 -10z m110 -1 c0 -4 -24 -7 -52 -7 -29 0 -45 3 -36 6 22 9 88 9 88 1z
m3980 0 c0 -4 -16 -7 -36 -7 -19 0 -36 -2 -38 -3 -3 -5 -175 -461 -194 -514
-7 -22 -20 -53 -27 -70 -7 -16 -59 -154 -115 -305 -56 -151 -109 -289 -116
-305 -8 -17 -16 -40 -18 -50 -2 -11 -11 -36 -19 -55 -16 -36 -25 -61 -142
-370 -36 -96 -79 -209 -94 -250 -16 -41 -48 -127 -71 -190 -24 -63 -48 -128
-55 -145 -8 -16 -71 -183 -140 -370 -70 -187 -133 -353 -141 -370 -11 -27
-247 -652 -314 -835 -70 -188 -210 -553 -215 -558 -3 -3 -7 -3 -9 -1 -3 4 15
50 102 274 15 38 27 72 28 75 0 3 5 16 11 30 6 14 29 75 51 135 23 61 89 236
147 390 59 154 128 339 155 410 27 72 90 238 140 370 50 132 104 274 119 315
110 295 153 410 166 440 8 19 51 132 95 250 45 118 101 269 126 335 25 66 62
163 81 215 20 52 39 104 44 115 4 11 43 112 85 225 42 113 92 246 111 295 19
50 69 180 110 290 42 110 79 209 83 220 6 16 17 20 49 20 22 0 41 -3 41 -6z
m60 -1 c0 -4 -12 -8 -26 -8 -14 0 -23 4 -20 8 2 4 14 8 25 8 12 0 21 -4 21 -8z
m140 2 c0 -3 -29 -7 -65 -8 -36 -1 -65 1 -65 6 0 4 29 7 65 7 36 0 65 -2 65
-5z m30 0 c0 -5 -5 -10 -11 -10 -5 0 -7 5 -4 10 3 6 8 10 11 10 2 0 4 -4 4
-10z m125 -2 c4 -3 -22 -6 -57 -6 -34 0 -55 3 -46 6 23 9 94 9 103 0z m125 1
c0 -4 -25 -6 -55 -6 -30 0 -55 2 -55 6 0 3 25 6 55 6 30 0 55 -3 55 -6z m35 1
c3 -5 -1 -10 -10 -10 -9 0 -13 5 -10 10 3 6 8 10 10 10 2 0 7 -4 10 -10z m125
-1 c0 -4 -25 -6 -55 -6 -30 0 -55 2 -55 6 0 3 25 6 55 6 30 0 55 -3 55 -6z
m60 -1 c0 -4 -12 -8 -26 -8 -14 0 -23 4 -20 8 2 4 14 8 25 8 12 0 21 -4 21 -8z
m140 2 c0 -3 -29 -7 -65 -8 -36 -1 -65 1 -65 6 0 4 29 7 65 7 36 0 65 -2 65
-5z m70 -6 c0 -2 -14 -4 -31 -4 -16 0 -28 4 -25 9 5 8 56 3 56 -5z m-5840 -64
c0 -5 -2 -10 -4 -10 -3 0 -8 5 -11 10 -3 6 -1 10 4 10 6 0 11 -4 11 -10z m-2
-45 c0 -14 -4 -25 -7 -25 -4 0 -7 11 -7 25 0 14 3 25 7 25 3 0 7 -11 7 -25z
m0 -60 c0 -14 -4 -25 -7 -25 -4 0 -7 11 -7 25 0 14 3 25 7 25 3 0 7 -11 7 -25z
m-1 -65 c0 -16 -3 -30 -7 -30 -3 0 -6 14 -6 30 0 17 3 30 6 30 4 0 7 -13 7
-30z m1 -65 c0 -14 -4 -25 -7 -25 -4 0 -7 11 -7 25 0 14 3 25 7 25 3 0 7 -11
7 -25z m0 -60 c0 -14 -4 -25 -7 -25 -4 0 -7 11 -7 25 0 14 3 25 7 25 3 0 7
-11 7 -25z m0 -60 c0 -14 -4 -25 -7 -25 -4 0 -7 11 -7 25 0 14 3 25 7 25 3 0
7 -11 7 -25z m0 -60 c0 -14 -4 -25 -7 -25 -4 0 -7 11 -7 25 0 14 3 25 7 25 3
0 7 -11 7 -25z m0 -60 c0 -14 -4 -25 -7 -25 -4 0 -7 11 -7 25 0 14 3 25 7 25
3 0 7 -11 7 -25z m0 -60 c0 -14 -4 -25 -7 -25 -4 0 -7 11 -7 25 0 14 3 25 7
25 3 0 7 -11 7 -25z m0 -60 c0 -14 -4 -25 -7 -25 -4 0 -7 11 -7 25 0 14 3 25
7 25 3 0 7 -11 7 -25z m2 -45 c0 -5 -2 -10 -4 -10 -3 0 -8 5 -11 10 -3 6 -1
10 4 10 6 0 11 -4 11 -10z m-2 -45 c0 -14 -4 -25 -7 -25 -4 0 -7 11 -7 25 0
14 3 25 7 25 3 0 7 -11 7 -25z m0 -60 c0 -14 -4 -25 -7 -25 -4 0 -7 11 -7 25
0 14 3 25 7 25 3 0 7 -11 7 -25z m-1 -75 c0 -22 -3 -40 -6 -40 -4 0 -7 18 -7
40 0 22 3 40 6 40 4 0 7 -18 7 -40z m1 -75 c0 -14 -4 -25 -7 -25 -4 0 -7 11
-7 25 0 14 3 25 7 25 3 0 7 -11 7 -25z m0 -60 c0 -14 -4 -25 -7 -25 -4 0 -7
11 -7 25 0 14 3 25 7 25 3 0 7 -11 7 -25z m0 -60 c0 -14 -4 -25 -7 -25 -4 0
-7 11 -7 25 0 14 3 25 7 25 3 0 7 -11 7 -25z m5376 -75 c5 -17 4 -20 -2 -10
-5 8 -13 26 -16 40 -5 17 -4 20 2 10 5 -8 13 -26 16 -40z m-5376 15 c0 -14 -4
-25 -7 -25 -4 0 -7 11 -7 25 0 14 3 25 7 25 3 0 7 -11 7 -25z m2 -45 c0 -5 -2
-10 -4 -10 -3 0 -8 5 -11 10 -3 6 -1 10 4 10 6 0 11 -4 11 -10z m5404 -46 c3
-8 2 -12 -4 -9 -6 3 -10 10 -10 16 0 14 7 11 14 -7z m-5406 -19 c0 -14 -4 -25
-7 -25 -4 0 -7 11 -7 25 0 14 3 25 7 25 3 0 7 -11 7 -25z m5422 -40 c0 -5 -5
-3 -10 5 -5 8 -10 20 -10 25 0 6 5 3 10 -5 5 -8 10 -19 10 -25z m-5422 -20 c0
-14 -4 -25 -7 -25 -4 0 -7 11 -7 25 0 14 3 25 7 25 3 0 7 -11 7 -25z m5442
-30 c0 -5 -5 -3 -10 5 -5 8 -10 20 -10 25 0 6 5 3 10 -5 5 -8 10 -19 10 -25z
m-5442 -30 c0 -14 -4 -25 -7 -25 -4 0 -7 11 -7 25 0 14 3 25 7 25 3 0 7 -11 7
-25z m5449 -7 c-3 -8 -6 -5 -6 6 -1 11 2 17 5 13 3 -3 4 -12 1 -19z m-5449
-53 c0 -14 -4 -25 -7 -25 -4 0 -7 11 -7 25 0 14 3 25 7 25 3 0 7 -11 7 -25z
m5502 -89 c-1 -6 -7 4 -15 23 -8 18 -15 38 -15 45 1 6 7 -4 15 -23 8 -18 15
-38 15 -45z m-5502 19 c1 -19 -2 -35 -6 -35 -4 0 -7 16 -7 35 -1 46 11 46 13
0z m5515 -55 c3 -11 1 -18 -4 -14 -5 3 -9 12 -9 20 0 20 7 17 13 -6z m-5513
-45 c0 -8 -4 -15 -8 -15 -5 0 -9 7 -9 15 0 8 4 15 9 15 4 0 8 -7 8 -15z m5539
-35 c0 -9 -4 -8 -9 5 -5 11 -9 27 -9 35 0 9 4 8 9 -5 5 -11 9 -27 9 -35z m21
-55 c0 -5 -5 -3 -10 5 -5 8 -10 20 -10 25 0 6 5 3 10 -5 5 -8 10 -19 10 -25z
m-5560 10 c0 -8 -4 -15 -8 -15 -5 0 -9 7 -9 15 0 8 4 15 9 15 4 0 8 -7 8 -15z
m5579 -70 c0 -5 -4 -3 -9 5 -5 8 -9 22 -9 30 0 16 17 -16 18 -35z m-5579 -10
c0 -8 -4 -15 -8 -15 -5 0 -9 7 -9 15 0 8 4 15 9 15 4 0 8 -7 8 -15z m0 -75 c0
-5 -4 -10 -10 -10 -5 0 -10 5 -10 10 0 6 5 10 10 10 6 0 10 -4 10 -10z m-2
-65 c0 -14 -4 -25 -7 -25 -4 0 -7 11 -7 25 0 14 3 25 7 25 3 0 7 -11 7 -25z
m5642 -20 c0 -5 -5 -3 -10 5 -5 8 -10 20 -10 25 0 6 5 3 10 -5 5 -8 10 -19 10
-25z m-5642 -40 c0 -14 -4 -25 -7 -25 -4 0 -7 11 -7 25 0 14 3 25 7 25 3 0 7
-11 7 -25z m5661 -20 c0 -5 -4 -3 -9 5 -5 8 -9 22 -9 30 0 16 17 -16 18 -35z
m-5661 -40 c0 -14 -4 -25 -7 -25 -4 0 -7 11 -7 25 0 14 3 25 7 25 3 0 7 -11 7
-25z m5682 -20 c0 -5 -5 -3 -10 5 -5 8 -10 20 -10 25 0 6 5 3 10 -5 5 -8 10
-19 10 -25z m-5682 -40 c0 -14 -4 -25 -7 -25 -4 0 -7 11 -7 25 0 14 3 25 7 25
3 0 7 -11 7 -25z m5711 -45 c0 -10 -3 -8 -9 5 -12 27 -12 43 0 25 5 -8 9 -22
9 -30z m-5711 -15 c0 -14 -4 -25 -7 -25 -4 0 -7 11 -7 25 0 14 3 25 7 25 3 0
7 -11 7 -25z m0 -60 c0 -14 -4 -25 -7 -25 -4 0 -7 11 -7 25 0 14 3 25 7 25 3
0 7 -11 7 -25z m5742 -10 c0 -5 -5 -3 -10 5 -5 8 -10 20 -10 25 0 6 5 3 10 -5
5 -8 10 -19 10 -25z m-5742 -50 c0 -14 -4 -25 -7 -25 -4 0 -7 11 -7 25 0 14 3
25 7 25 3 0 7 -11 7 -25z m0 -60 c0 -14 -4 -25 -7 -25 -4 0 -7 11 -7 25 0 14
3 25 7 25 3 0 7 -11 7 -25z m5782 -10 c0 -5 -5 -3 -10 5 -5 8 -10 20 -10 25 0
6 5 3 10 -5 5 -8 10 -19 10 -25z m-5782 -50 c0 -14 -4 -25 -7 -25 -4 0 -7 11
-7 25 0 14 3 25 7 25 3 0 7 -11 7 -25z m5821 -70 c0 -5 -4 -3 -9 5 -5 8 -9 22
-9 30 0 16 17 -16 18 -35z m-5822 -5 c0 -22 -3 -40 -6 -40 -4 0 -6 18 -6 40 0
22 2 40 6 40 3 0 6 -18 6 -40z m5852 -85 c0 -5 -4 -3 -9 5 -5 8 -9 22 -9 30 0
16 17 -16 18 -35z m-5849 -20 c0 -8 -4 -15 -8 -15 -5 0 -9 7 -9 15 0 8 4 15 9
15 4 0 8 -7 8 -15z m5880 -60 c0 -5 -5 -3 -10 5 -5 8 -10 20 -10 25 0 6 5 3
10 -5 5 -8 10 -19 10 -25z m-5880 -20 c0 -8 -4 -15 -8 -15 -5 0 -9 7 -9 15 0
8 4 15 9 15 4 0 8 -7 8 -15z m5887 -17 c-3 -8 -6 -5 -6 6 -1 11 2 17 5 13 3
-3 4 -12 1 -19z m13 -33 c0 -13 -70 -15 -567 -15 -311 0 -564 3 -561 6 4 3
256 5 562 5 343 0 556 4 556 10 0 5 2 9 5 9 3 0 5 -7 5 -15z m-5900 -30 c0 -8
-4 -15 -8 -15 -5 0 -9 7 -9 15 0 8 4 15 9 15 4 0 8 -7 8 -15z m-2 -95 c-1 -16
-4 -30 -7 -30 -3 0 -7 14 -7 30 -1 17 2 30 6 30 5 0 8 -13 8 -30z m0 -65 c0
-14 -4 -25 -7 -25 -4 0 -7 11 -7 25 0 14 3 25 7 25 3 0 7 -11 7 -25z m0 -60
c0 -14 -4 -25 -7 -25 -4 0 -7 11 -7 25 0 14 3 25 7 25 3 0 7 -11 7 -25z m0
-60 c0 -14 -4 -25 -7 -25 -4 0 -7 11 -7 25 0 14 3 25 7 25 3 0 7 -11 7 -25z
m0 -60 c0 -14 -4 -25 -7 -25 -4 0 -7 11 -7 25 0 14 3 25 7 25 3 0 7 -11 7 -25z
m2 -45 c0 -5 -2 -10 -4 -10 -3 0 -8 5 -11 10 -3 6 -1 10 4 10 6 0 11 -4 11
-10z m-2 -65 c0 -14 -4 -25 -7 -25 -4 0 -7 11 -7 25 0 14 3 25 7 25 3 0 7 -11
7 -25z m0 -60 c0 -14 -4 -25 -7 -25 -4 0 -7 11 -7 25 0 14 3 25 7 25 3 0 7
-11 7 -25z m0 -60 c0 -14 -4 -25 -7 -25 -4 0 -7 11 -7 25 0 14 3 25 7 25 3 0
7 -11 7 -25z m0 -60 c0 -14 -4 -25 -7 -25 -4 0 -7 11 -7 25 0 14 3 25 7 25 3
0 7 -11 7 -25z m-1 -75 c0 -22 -3 -40 -6 -40 -4 0 -6 18 -6 40 0 22 2 40 6 40
3 0 6 -18 6 -40z m6171 -31 c-3 -8 -7 -3 -11 10 -4 17 -3 21 5 13 5 -5 8 -16
6 -23z m-6170 -44 c0 -14 -4 -25 -7 -25 -4 0 -7 11 -7 25 0 14 3 25 7 25 3 0
7 -11 7 -25z m6196 -21 c3 -8 2 -12 -4 -9 -6 3 -10 10 -10 16 0 14 7 11 14 -7z
m-6196 -39 c0 -14 -4 -25 -7 -25 -4 0 -7 11 -7 25 0 14 3 25 7 25 3 0 7 -11 7
-25z m6222 -40 c0 -5 -5 -3 -10 5 -5 8 -10 20 -10 25 0 6 5 3 10 -5 5 -8 10
-19 10 -25z m-5065 14 c2 -3 -38 -6 -90 -6 -52 0 -95 3 -95 6 0 7 177 7 185 0z
m120 0 c2 -3 -16 -5 -40 -6 -25 -1 -45 1 -45 5 0 8 77 8 85 1z m90 0 c2 -3
-13 -6 -35 -6 -22 0 -40 2 -40 6 0 8 67 7 75 0z m115 0 c0 -3 -22 -6 -50 -5
-27 0 -50 2 -50 6 0 3 23 5 50 5 28 0 50 -3 50 -6z m120 -2 c0 -4 -20 -6 -45
-5 -59 4 -59 15 0 14 25 -1 45 -4 45 -9z m125 1 c3 -2 -22 -5 -55 -5 -33 0
-60 2 -60 6 0 7 108 7 115 -1z m30 2 c3 -5 1 -10 -4 -10 -6 0 -11 5 -11 10 0
6 2 10 4 10 3 0 8 -4 11 -10z m90 -1 c2 -3 -13 -6 -35 -6 -22 0 -40 2 -40 6 0
8 67 7 75 0z m115 0 c0 -3 -22 -6 -50 -5 -27 0 -50 2 -50 6 0 3 23 5 50 5 28
0 50 -3 50 -6z m120 -2 c0 -4 -20 -6 -45 -5 -59 4 -59 15 0 14 25 -1 45 -4 45
-9z m125 1 c3 -2 -22 -5 -55 -5 -33 0 -60 2 -60 6 0 7 108 7 115 -1z m30 2 c3
-5 1 -10 -4 -10 -6 0 -11 5 -11 10 0 6 2 10 4 10 3 0 8 -4 11 -10z m90 -1 c2
-3 -13 -6 -35 -6 -22 0 -40 2 -40 6 0 8 67 7 75 0z m115 0 c0 -3 -22 -6 -50
-5 -27 0 -50 2 -50 6 0 3 23 5 50 5 28 0 50 -3 50 -6z m120 -2 c0 -4 -20 -6
-45 -5 -59 4 -59 15 0 14 25 -1 45 -4 45 -9z m125 1 c3 -2 -22 -5 -55 -5 -33
0 -60 2 -60 6 0 7 108 7 115 -1z m30 2 c3 -5 1 -10 -4 -10 -6 0 -11 5 -11 10
0 6 2 10 4 10 3 0 8 -4 11 -10z m90 -1 c2 -3 -13 -6 -35 -6 -22 0 -40 2 -40 6
0 8 67 7 75 0z m115 0 c0 -3 -22 -6 -50 -5 -27 0 -50 2 -50 6 0 3 23 5 50 5
28 0 50 -3 50 -6z m130 -6 c2 -2 -19 -2 -48 -1 -29 2 -52 6 -52 10 0 7 91 -1
100 -9z m40 7 c12 -7 10 -9 -8 -7 -12 0 -22 5 -22 9 0 11 12 10 30 -2z m-3092
-35 c0 -14 -4 -25 -7 -25 -4 0 -7 11 -7 25 0 14 3 25 7 25 3 0 7 -11 7 -25z
m6251 -70 c0 -5 -4 -3 -9 5 -5 8 -9 22 -9 30 0 16 17 -16 18 -35z m-6251 10
c0 -14 -4 -25 -7 -25 -4 0 -7 11 -7 25 0 14 3 25 7 25 3 0 7 -11 7 -25z m6266
-41 c3 -8 2 -12 -4 -9 -6 3 -10 10 -10 16 0 14 7 11 14 -7z m-6266 -19 c0 -14
-4 -25 -7 -25 -4 0 -7 11 -7 25 0 14 3 25 7 25 3 0 7 -11 7 -25z m0 -60 c0
-14 -4 -25 -7 -25 -4 0 -7 11 -7 25 0 14 3 25 7 25 3 0 7 -11 7 -25z m6301
-34 c0 -14 -1 -14 -6 -1 -3 8 -10 24 -15 35 -9 20 -9 20 6 1 9 -11 16 -27 15
-35z m-6301 -26 c0 -14 -4 -25 -7 -25 -4 0 -7 11 -7 25 0 14 3 25 7 25 3 0 7
-11 7 -25z m6322 -30 c0 -5 -5 -3 -10 5 -5 8 -10 20 -10 25 0 6 5 3 10 -5 5
-8 10 -19 10 -25z m-6320 -15 c0 -5 -2 -10 -4 -10 -3 0 -8 5 -11 10 -3 6 -1
10 4 10 6 0 11 -4 11 -10z m-2 -45 c0 -14 -4 -25 -7 -25 -4 0 -7 11 -7 25 0
14 3 25 7 25 3 0 7 -11 7 -25z m6339 -7 c-3 -8 -6 -5 -6 6 -1 11 2 17 5 13 3
-3 4 -12 1 -19z m23 -53 c0 -5 -5 -3 -10 5 -5 8 -10 20 -10 25 0 6 5 3 10 -5
5 -8 10 -19 10 -25z m-6362 0 c0 -14 -4 -25 -7 -25 -4 0 -7 11 -7 25 0 14 3
25 7 25 3 0 7 -11 7 -25z m6381 -65 c0 -9 -4 -8 -9 5 -5 11 -9 27 -9 35 0 9 4
8 9 -5 5 -11 9 -27 9 -35z m-6382 0 c0 -16 -3 -30 -7 -30 -3 0 -6 14 -6 30 0
17 3 30 6 30 4 0 7 -13 7 -30z m6403 -40 c0 -5 -2 -10 -4 -10 -3 0 -8 5 -11
10 -3 6 -1 10 4 10 6 0 11 -4 11 -10z m-6402 -25 c0 -14 -4 -25 -7 -25 -4 0
-7 11 -7 25 0 14 3 25 7 25 3 0 7 -11 7 -25z m6410 -20 c-3 -3 -9 2 -12 12 -6
14 -5 15 5 6 7 -7 10 -15 7 -18z m-6410 -40 c0 -14 -4 -25 -7 -25 -4 0 -7 11
-7 25 0 14 3 25 7 25 3 0 7 -11 7 -25z m6441 -45 c0 -10 -3 -8 -9 5 -12 27
-12 43 0 25 5 -8 9 -22 9 -30z m-6441 -15 c0 -14 -4 -25 -7 -25 -4 0 -7 11 -7
25 0 14 3 25 7 25 3 0 7 -11 7 -25z m0 -60 c0 -14 -4 -25 -7 -25 -4 0 -7 11
-7 25 0 14 3 25 7 25 3 0 7 -11 7 -25z m6471 -15 c0 -10 -3 -8 -9 5 -12 27
-12 43 0 25 5 -8 9 -22 9 -30z m-6472 -40 c-1 -21 -10 -18 -13 5 -1 8 2 15 6
15 5 0 8 -9 7 -20z"/>
</g>
</svg>
